<svg width="31" height="31" viewBox="0 0 31 31" fill="none" xmlns="http://www.w3.org/2000/svg">
<rect width="31" height="31" rx="5" fill="#D77474"/>
<path d="M3 14C2.44772 14 2 14.4477 2 15C2 15.5523 2.44772 16 3 16V14ZM28.7071 15.7071C29.0976 15.3166 29.0976 14.6834 28.7071 14.2929L22.3431 7.92893C21.9526 7.53841 21.3195 7.53841 20.9289 7.92893C20.5384 8.31946 20.5384 8.95262 20.9289 9.34315L26.5858 15L20.9289 20.6569C20.5384 21.0474 20.5384 21.6805 20.9289 22.0711C21.3195 22.4616 21.9526 22.4616 22.3431 22.0711L28.7071 15.7071ZM3 16H28V14H3V16Z" fill="white"/>
</svg>
